{
  "version": "0.6.2b",
  "modules": [
    {
      "plugin": "Alikins",
      "version": "0.6.5",
      "model": "ColorPanel",
      "params": [],
      "data": {
        "inputRange": 1,
        "colorMode": 1
      },
      "width": 90.0,
      "pos": [
        56,
        1
      ]
    },
    {
      "plugin": "Alikins",
      "version": "0.6.5",
      "model": "ColorPanel",
      "params": [],
      "data": {
        "inputRange": 1,
        "colorMode": 1
      },
      "width": 90.0,
      "pos": [
        62,
        1
      ]
    },
    {
      "plugin": "Fundamental",
      "version": "0.6.0",
      "model": "LFO",
      "params": [
        {
          "paramId": 0,
          "value": 0.0
        },
        {
          "paramId": 1,
          "value": 1.0
        },
        {
          "paramId": 2,
          "value": -3.21900201
        },
        {
          "paramId": 3,
          "value": 0.0
        },
        {
          "paramId": 5,
          "value": 0.266386122
        },
        {
          "paramId": 4,
          "value": 0.0
        },
        {
          "paramId": 6,
          "value": 0.0
        }
      ],
      "pos": [
        74,
        1
      ]
    },
    {
      "plugin": "Alikins",
      "version": "0.6.5",
      "model": "ColorPanel",
      "params": [],
      "data": {
        "inputRange": 1,
        "colorMode": 1
      },
      "width": 90.0,
      "pos": [
        68,
        1
      ]
    },
    {
      "plugin": "Alikins",
      "version": "0.6.5",
      "model": "MomentaryOnButtons",
      "params": [
        {
          "paramId": 0,
          "value": 0.0
        },
        {
          "paramId": 1,
          "value": 0.0
        },
        {
          "paramId": 2,
          "value": 0.0
        },
        {
          "paramId": 3,
          "value": 0.0
        },
        {
          "paramId": 4,
          "value": 0.0
        },
        {
          "paramId": 5,
          "value": 0.0
        },
        {
          "paramId": 6,
          "value": 0.0
        },
        {
          "paramId": 7,
          "value": 0.0
        },
        {
          "paramId": 8,
          "value": 0.0
        },
        {
          "paramId": 9,
          "value": 0.0
        },
        {
          "paramId": 10,
          "value": 0.0
        },
        {
          "paramId": 11,
          "value": 0.0
        },
        {
          "paramId": 12,
          "value": 0.0
        }
      ],
      "pos": [
        0,
        0
      ]
    },
    {
      "plugin": "Alikins",
      "version": "0.6.5",
      "model": "IdleSwitch",
      "params": [
        {
          "paramId": 0,
          "value": 1.36000001
        }
      ],
      "pos": [
        4,
        0
      ]
    },
    {
      "plugin": "Alikins",
      "version": "0.6.5",
      "model": "BigMuteButton",
      "params": [
        {
          "paramId": 0,
          "value": 1.0
        }
      ],
      "pos": [
        12,
        0
      ]
    },
    {
      "plugin": "Alikins",
      "version": "0.6.5",
      "model": "ColorPanel",
      "params": [],
      "data": {
        "inputRange": 1,
        "colorMode": 1
      },
      "width": 90.0,
      "pos": [
        18,
        0
      ]
    },
    {
      "plugin": "Alikins",
      "version": "0.6.5",
      "model": "GateLength",
      "params": [
        {
          "paramId": 0,
          "value": 0.100000001
        },
        {
          "paramId": 1,
          "value": 0.100000001
        },
        {
          "paramId": 2,
          "value": 0.100000001
        },
        {
          "paramId": 3,
          "value": 0.100000001
        },
        {
          "paramId": 4,
          "value": 0.615001202
        }
      ],
      "pos": [
        22,
        1
      ]
    },
    {
      "plugin": "Alikins",
      "version": "0.6.5",
      "model": "SpecificValue",
      "params": [
        {
          "paramId": 0,
          "value": 2.67999959
        }
      ],
      "pos": [
        24,
        0
      ]
    },
    {
      "plugin": "Alikins",
      "version": "0.6.5",
      "model": "ColorPanel",
      "params": [],
      "data": {
        "inputRange": 1,
        "colorMode": 1
      },
      "width": 90.0,
      "pos": [
        30,
        0
      ]
    },
    {
      "plugin": "Alikins",
      "version": "0.6.5",
      "model": "SpecificValue",
      "params": [
        {
          "paramId": 0,
          "value": 1.46000361
        }
      ],
      "pos": [
        32,
        1
      ]
    },
    {
      "plugin": "Alikins",
      "version": "0.6.5",
      "model": "Reference",
      "params": [],
      "pos": [
        36,
        0
      ]
    },
    {
      "plugin": "Alikins",
      "version": "0.6.5",
      "model": "HoveredValue",
      "params": [
        {
          "paramId": 2,
          "value": 0.0
        },
        {
          "paramId": 1,
          "value": 2.0
        }
      ],
      "data": {
        "useTooltip": true
      },
      "pos": [
        0,
        1
      ]
    },
    {
      "plugin": "Alikins",
      "version": "0.6.5",
      "model": "InjectValue",
      "params": [
        {
          "paramId": 1,
          "value": 0.0
        },
        {
          "paramId": 0,
          "value": 1.0
        }
      ],
      "pos": [
        6,
        1
      ]
    },
    {
      "plugin": "Alikins",
      "version": "0.6.5",
      "model": "ShiftPedal",
      "params": [
        {
          "paramId": 0,
          "value": 0.0
        },
        {
          "paramId": 1,
          "value": 0.0
        },
        {
          "paramId": 2,
          "value": 0.0
        },
        {
          "paramId": 3,
          "value": 0.0
        },
        {
          "paramId": 4,
          "value": 0.0
        },
        {
          "paramId": 5,
          "value": 0.0
        },
        {
          "paramId": 6,
          "value": 0.0
        },
        {
          "paramId": 7,
          "value": 0.0
        }
      ],
      "pos": [
        12,
        1
      ]
    },
    {
      "plugin": "Alikins",
      "version": "0.6.5",
      "model": "ValueSaver",
      "params": [],
      "data": {
        "values": [
          2.67999959,
          0.0,
          4.02730179,
          0.0
        ]
      },
      "labels": [
        "should be 2.68, no input",
        "",
        "lfo",
        ""
      ],
      "pos": [
        16,
        1
      ]
    },
    {
      "plugin": "Alikins",
      "version": "0.6.5",
      "model": "SpecificValue",
      "params": [
        {
          "paramId": 0,
          "value": 0.0
        }
      ],
      "pos": [
        84,
        1
      ]
    },
    {
      "plugin": "Alikins",
      "version": "0.6.5",
      "model": "SpecificValue",
      "params": [
        {
          "paramId": 0,
          "value": 2.67999959
        }
      ],
      "pos": [
        76,
        0
      ]
    }
  ],
  "wires": [
    {
      "color": "#0986ad",
      "outputModuleId": 2,
      "outputId": 2,
      "inputModuleId": 1,
      "inputId": 0
    },
    {
      "color": "#c9b70e",
      "outputModuleId": 2,
      "outputId": 2,
      "inputModuleId": 1,
      "inputId": 1
    },
    {
      "color": "#c91847",
      "outputModuleId": 2,
      "outputId": 2,
      "inputModuleId": 1,
      "inputId": 2
    },
    {
      "color": "#0c8e15",
      "outputModuleId": 2,
      "outputId": 1,
      "inputModuleId": 3,
      "inputId": 0
    },
    {
      "color": "#0986ad",
      "outputModuleId": 2,
      "outputId": 1,
      "inputModuleId": 3,
      "inputId": 1
    },
    {
      "color": "#c9b70e",
      "outputModuleId": 2,
      "outputId": 1,
      "inputModuleId": 3,
      "inputId": 2
    },
    {
      "color": "#c91847",
      "outputModuleId": 2,
      "outputId": 3,
      "inputModuleId": 0,
      "inputId": 0
    },
    {
      "color": "#0c8e15",
      "outputModuleId": 2,
      "outputId": 3,
      "inputModuleId": 0,
      "inputId": 1
    },
    {
      "color": "#0986ad",
      "outputModuleId": 2,
      "outputId": 3,
      "inputModuleId": 0,
      "inputId": 2
    },
    {
      "color": "#c9b70e",
      "outputModuleId": 4,
      "outputId": 0,
      "inputModuleId": 5,
      "inputId": 0
    },
    {
      "color": "#c91847",
      "outputModuleId": 2,
      "outputId": 0,
      "inputModuleId": 5,
      "inputId": 4
    },
    {
      "color": "#c9b70e",
      "outputModuleId": 5,
      "outputId": 5,
      "inputModuleId": 6,
      "inputId": 0
    },
    {
      "color": "#c91847",
      "outputModuleId": 5,
      "outputId": 6,
      "inputModuleId": 6,
      "inputId": 1
    },
    {
      "color": "#0c8e15",
      "outputModuleId": 6,
      "outputId": 0,
      "inputModuleId": 7,
      "inputId": 0
    },
    {
      "color": "#0986ad",
      "outputModuleId": 6,
      "outputId": 1,
      "inputModuleId": 7,
      "inputId": 2
    },
    {
      "color": "#c9b70e",
      "outputModuleId": 2,
      "outputId": 2,
      "inputModuleId": 7,
      "inputId": 1
    },
    {
      "color": "#0986ad",
      "outputModuleId": 9,
      "outputId": 0,
      "inputModuleId": 10,
      "inputId": 0
    },
    {
      "color": "#c91847",
      "outputModuleId": 11,
      "outputId": 0,
      "inputModuleId": 10,
      "inputId": 2
    },
    {
      "color": "#0c8e15",
      "outputModuleId": 5,
      "outputId": 0,
      "inputModuleId": 8,
      "inputId": 4
    },
    {
      "color": "#0986ad",
      "outputModuleId": 12,
      "outputId": 6,
      "inputModuleId": 10,
      "inputId": 1
    },
    {
      "color": "#0986ad",
      "outputModuleId": 15,
      "outputId": 2,
      "inputModuleId": 17,
      "inputId": 0
    },
    {
      "color": "#c9b70e",
      "outputModuleId": 15,
      "outputId": 5,
      "inputModuleId": 16,
      "inputId": 1
    },
    {
      "color": "#c91847",
      "outputModuleId": 2,
      "outputId": 0,
      "inputModuleId": 14,
      "inputId": 0
    },
    {
      "color": "#0986ad",
      "outputModuleId": 16,
      "outputId": 0,
      "inputModuleId": 18,
      "inputId": 0
    },
    {
      "color": "#c9b70e",
      "outputModuleId": 2,
      "outputId": 0,
      "inputModuleId": 16,
      "inputId": 2
    },
    {
      "color": "#c91847",
      "outputModuleId": 12,
      "outputId": 4,
      "inputModuleId": 8,
      "inputId": 1
    }
  ]
}