{
  "version": "0.6.0",
  "modules": [
    {
      "plugin": "Alikins",
      "version": "0.6.0",
      "model": "Reference",
      "pos": [
        0,
        0
      ],
      "params": []
    },
    {
      "plugin": "Fundamental",
      "version": "0.6.0",
      "model": "Scope",
      "pos": [
        2,
        1
      ],
      "params": [
        {
          "paramId": 0,
          "value": 0.0
        },
        {
          "paramId": 1,
          "value": 0.0
        },
        {
          "paramId": 2,
          "value": 0.0
        },
        {
          "paramId": 3,
          "value": 0.0
        },
        {
          "paramId": 4,
          "value": -7.99999571
        },
        {
          "paramId": 5,
          "value": 0.0
        },
        {
          "paramId": 6,
          "value": -10.0
        },
        {
          "paramId": 7,
          "value": 0.0
        }
      ],
      "data": {
        "lissajous": 0,
        "external": 0
      }
    },
    {
      "plugin": "Alikins",
      "version": "0.6.0",
      "model": "SpecificValue",
      "pos": [
        2,
        0
      ],
      "params": [
        {
          "paramId": 1,
          "value": 4.0
        },
        {
          "paramId": 0,
          "value": 10.0
        }
      ]
    },
    {
      "plugin": "Alikins",
      "version": "0.6.0",
      "model": "SpecificValue",
      "pos": [
        8,
        0
      ],
      "params": [
        {
          "paramId": 1,
          "value": 4.0
        },
        {
          "paramId": 0,
          "value": 5.0
        }
      ]
    },
    {
      "plugin": "Alikins",
      "version": "0.6.0",
      "model": "SpecificValue",
      "pos": [
        14,
        0
      ],
      "params": [
        {
          "paramId": 1,
          "value": 4.0
        },
        {
          "paramId": 0,
          "value": 1.0
        }
      ]
    },
    {
      "plugin": "Alikins",
      "version": "0.6.0",
      "model": "SpecificValue",
      "pos": [
        20,
        0
      ],
      "params": [
        {
          "paramId": 1,
          "value": 4.0
        },
        {
          "paramId": 0,
          "value": 0.0
        }
      ]
    },
    {
      "plugin": "Alikins",
      "version": "0.6.0",
      "model": "SpecificValue",
      "pos": [
        26,
        0
      ],
      "params": [
        {
          "paramId": 1,
          "value": 4.0
        },
        {
          "paramId": 0,
          "value": -1.0
        }
      ]
    },
    {
      "plugin": "Alikins",
      "version": "0.6.0",
      "model": "SpecificValue",
      "pos": [
        32,
        0
      ],
      "params": [
        {
          "paramId": 1,
          "value": 4.0
        },
        {
          "paramId": 0,
          "value": -5.0
        }
      ]
    },
    {
      "plugin": "Alikins",
      "version": "0.6.0",
      "model": "SpecificValue",
      "pos": [
        38,
        0
      ],
      "params": [
        {
          "paramId": 1,
          "value": 4.0
        },
        {
          "paramId": 0,
          "value": -10.0
        }
      ]
    },
    {
      "plugin": "Alikins",
      "version": "0.6.0",
      "model": "Reference",
      "pos": [
        0,
        1
      ],
      "params": []
    },
    {
      "plugin": "Fundamental",
      "version": "0.6.0",
      "model": "Scope",
      "pos": [
        15,
        1
      ],
      "params": [
        {
          "paramId": 0,
          "value": 0.0
        },
        {
          "paramId": 1,
          "value": 0.0
        },
        {
          "paramId": 2,
          "value": 0.0
        },
        {
          "paramId": 3,
          "value": 0.0
        },
        {
          "paramId": 4,
          "value": -7.99999571
        },
        {
          "paramId": 5,
          "value": 0.0
        },
        {
          "paramId": 6,
          "value": -10.0
        },
        {
          "paramId": 7,
          "value": 0.0
        }
      ],
      "data": {
        "lissajous": 0,
        "external": 0
      }
    },
    {
      "plugin": "Fundamental",
      "version": "0.6.0",
      "model": "Scope",
      "pos": [
        28,
        1
      ],
      "params": [
        {
          "paramId": 0,
          "value": 0.0
        },
        {
          "paramId": 1,
          "value": 0.0
        },
        {
          "paramId": 2,
          "value": 0.0
        },
        {
          "paramId": 3,
          "value": 0.0
        },
        {
          "paramId": 4,
          "value": -7.99999571
        },
        {
          "paramId": 5,
          "value": 0.0
        },
        {
          "paramId": 6,
          "value": -10.0
        },
        {
          "paramId": 7,
          "value": 0.0
        }
      ],
      "data": {
        "lissajous": 0,
        "external": 0
      }
    }
  ],
  "wires": [
    {
      "color": {
        "r": 0.788235366,
        "g": 0.0941176564,
        "b": 0.278431386,
        "a": 1.0
      },
      "outputModuleId": 0,
      "outputId": 6,
      "inputModuleId": 2,
      "inputId": 0
    },
    {
      "color": {
        "r": 0.0470588282,
        "g": 0.556862772,
        "b": 0.0823529437,
        "a": 1.0
      },
      "outputModuleId": 0,
      "outputId": 5,
      "inputModuleId": 3,
      "inputId": 0
    },
    {
      "color": {
        "r": 0.0352941193,
        "g": 0.525490224,
        "b": 0.678431392,
        "a": 1.0
      },
      "outputModuleId": 0,
      "outputId": 4,
      "inputModuleId": 4,
      "inputId": 0
    },
    {
      "color": {
        "r": 0.788235366,
        "g": 0.717647076,
        "b": 0.054901965,
        "a": 1.0
      },
      "outputModuleId": 0,
      "outputId": 3,
      "inputModuleId": 5,
      "inputId": 0
    },
    {
      "color": {
        "r": 0.788235366,
        "g": 0.0941176564,
        "b": 0.278431386,
        "a": 1.0
      },
      "outputModuleId": 0,
      "outputId": 2,
      "inputModuleId": 6,
      "inputId": 0
    },
    {
      "color": {
        "r": 0.0470588282,
        "g": 0.556862772,
        "b": 0.0823529437,
        "a": 1.0
      },
      "outputModuleId": 0,
      "outputId": 1,
      "inputModuleId": 7,
      "inputId": 0
    },
    {
      "color": {
        "r": 0.0352941193,
        "g": 0.525490224,
        "b": 0.678431392,
        "a": 1.0
      },
      "outputModuleId": 0,
      "outputId": 0,
      "inputModuleId": 8,
      "inputId": 0
    },
    {
      "color": {
        "r": 0.788235366,
        "g": 0.717647076,
        "b": 0.054901965,
        "a": 1.0
      },
      "outputModuleId": 9,
      "outputId": 6,
      "inputModuleId": 1,
      "inputId": 0
    },
    {
      "color": {
        "r": 0.788235366,
        "g": 0.0941176564,
        "b": 0.278431386,
        "a": 1.0
      },
      "outputModuleId": 9,
      "outputId": 5,
      "inputModuleId": 1,
      "inputId": 1
    },
    {
      "color": {
        "r": 0.0470588282,
        "g": 0.556862772,
        "b": 0.0823529437,
        "a": 1.0
      },
      "outputModuleId": 9,
      "outputId": 4,
      "inputModuleId": 10,
      "inputId": 0
    },
    {
      "color": {
        "r": 0.788235366,
        "g": 0.717647076,
        "b": 0.054901965,
        "a": 1.0
      },
      "outputModuleId": 9,
      "outputId": 1,
      "inputModuleId": 11,
      "inputId": 0
    },
    {
      "color": {
        "r": 0.788235366,
        "g": 0.0941176564,
        "b": 0.278431386,
        "a": 1.0
      },
      "outputModuleId": 9,
      "outputId": 0,
      "inputModuleId": 11,
      "inputId": 1
    },
    {
      "color": {
        "r": 0.0470588282,
        "g": 0.556862772,
        "b": 0.0823529437,
        "a": 1.0
      },
      "outputModuleId": 9,
      "outputId": 2,
      "inputModuleId": 10,
      "inputId": 1
    }
  ]
}